<svg width="24" height="21" viewBox="0 0 24 21" fill="none" xmlns="http://www.w3.org/2000/svg">
<path fill-rule="evenodd" clip-rule="evenodd" d="M14.2418 11.4991C14.1567 11.6186 14.0621 11.7318 13.9584 11.8375C13.4391 12.367 12.7347 12.6644 12.0002 12.6644C11.2658 12.6644 10.5614 12.367 10.042 11.8375C9.52271 11.3081 9.23095 10.59 9.23095 9.84128C9.23095 9.09254 9.52271 8.37447 10.042 7.84503C10.1458 7.73931 10.2568 7.64284 10.3741 7.55614L9.05883 6.21533C8.94733 6.30934 8.83977 6.40902 8.7366 6.5142C7.87104 7.3966 7.38477 8.59338 7.38477 9.84128C7.38477 11.0892 7.87104 12.286 8.7366 13.1684C9.60217 14.0508 10.7761 14.5465 12.0002 14.5465C13.2243 14.5465 14.3983 14.0508 15.2638 13.1684C15.367 13.0632 15.4648 12.9535 15.557 12.8399L14.2418 11.4991Z" fill="#ADADAD"/>
<path fill-rule="evenodd" clip-rule="evenodd" d="M1.03509 7.06978C0.430776 7.95937 0 8.93429 0 9.84145C0 10.7486 0.430776 11.7235 1.03509 12.6131C1.65787 13.5278 2.53912 14.4588 3.60621 15.2932C5.73547 16.9595 8.69675 18.3108 12.0002 18.3108C14.6084 18.3108 17.004 17.4684 18.9448 16.2938L17.5912 14.9138C15.9718 15.815 14.0493 16.4287 12.0002 16.4287C9.18537 16.4287 6.60933 15.2706 4.72992 13.8001C3.79206 13.0661 3.05112 12.2718 2.55142 11.5403C2.03572 10.7825 1.84618 10.189 1.84618 9.84145C1.84618 9.4939 2.03572 8.90041 2.55142 8.14256C3.05112 7.41106 3.79206 6.61682 4.72992 5.88281C5.46549 5.30727 6.30777 4.77959 7.22932 4.35046L5.8481 2.94238C5.02826 3.37209 4.27548 3.8653 3.60498 4.3897C2.53912 5.22534 1.65787 6.15509 1.03509 7.06978Z" fill="#ADADAD"/>
<path fill-rule="evenodd" clip-rule="evenodd" d="M19.3054 13.7726C20.2267 13.0463 20.9554 12.2627 21.4489 11.5403C21.9646 10.7825 22.1542 10.189 22.1542 9.84143C22.1542 9.49387 21.9646 8.90039 21.4489 8.14254C20.9492 7.41104 20.2083 6.6168 19.2704 5.88279C17.391 4.41226 14.815 3.25415 12.0002 3.25415C10.8451 3.25415 9.73031 3.44915 8.68732 3.78072L7.1543 2.3381C8.62839 1.74396 10.2672 1.37207 12.0002 1.37207C15.3036 1.37207 18.2649 2.7234 20.3941 4.38967C21.4612 5.22406 22.3425 6.15506 22.9652 7.06975C23.5708 7.95935 24.0003 8.93427 24.0003 9.84143C24.0003 10.7486 23.5696 11.7235 22.9652 12.6131C22.3986 13.4454 21.6179 14.2901 20.6789 15.0651L19.3054 13.7726Z" fill="#ADADAD"/>
<line x1="1" y1="-1" x2="26.5764" y2="-1" transform="matrix(0.724765 0.688996 -0.674947 0.737866 0.922852 1.05859)" stroke="#ADADAD" stroke-width="2" stroke-linecap="round"/>
</svg>
